<svg xmlns="http://www.w3.org/2000/svg" xmlns:xlink="http://www.w3.org/1999/xlink" width="511.999" height="511.107" viewBox="0 0 511.999 511.107"><defs><linearGradient id="a" x1="0.017" y1="0.784" x2="1.024" y2="0.202" gradientUnits="objectBoundingBox"><stop offset="0" stop-color="#d2deff" stop-opacity="0"/><stop offset="1" stop-color="#b7c5ff"/></linearGradient></defs><g transform="translate(-0.001 -0.447)"><path d="M418.32,2.5c-55.666-9.521-178.3,12.183-200,105.017-14.432,61.722-14.007,112.075-50.427,113.02-21.67.562-32.97-44.31-62.889-48-39.047-4.817-66.145,27.7-83.057,57.138C-15.262,294.446-3.628,404.592,45.3,458.306,163.785,588.392,304.494,452.354,364.655,346c38.585-68.213,125.637-123.352,143.767-200.248,15.177-64.376-18.5-131-90.1-143.249Z" fill="url(#a)"/><path d="M455.47,452.133H56.53a15,15,0,0,1-15-15V122.867a15,15,0,0,1,15-15H455.47a15,15,0,0,1,15,15V437.133A15,15,0,0,1,455.47,452.133Z" fill="#2626bc" opacity="0.1"/><path d="M455.47,428.133H56.53a15,15,0,0,1-15-15V98.867a15,15,0,0,1,15-15H455.47a15,15,0,0,1,15,15V413.133A15,15,0,0,1,455.47,428.133Z" fill="#fff"/><path d="M56.53,428.133h90.03V180.75H41.53V413.133A15,15,0,0,0,56.53,428.133Z" fill="#6583fe"/><path d="M146.56,180.75H335.441V428.13H146.56Z" fill="#fff"/><path d="M316.9,293.01V428.13h-146V293.01a5,5,0,0,1,5-5h136A5,5,0,0,1,316.9,293.01Z" fill="#6583fe"/><path d="M303.062,385.018l-36.69-36.69a5,5,0,0,0-7.071,0l-21.158,21.163-9.666-9.666a5,5,0,0,0-7.07,0L196.083,385.15a5,5,0,1,0,7.07,7.07l21.789-21.788,21.712,21.71a5,5,0,0,0,7.07-7.07l-8.51-8.51,17.623-17.628,33.155,33.154a5,5,0,0,0,7.07-7.07Z" fill="#2626bc"/><path d="M470.47,180.75V98.867a15,15,0,0,0-15-15H56.53a15,15,0,0,0-15,15V180.75Z" fill="#fff"/><path d="M455.47,83.867H335.44V180.75H470.47V98.867A15,15,0,0,0,455.47,83.867Z" fill="#6583fe"/><path d="M470.47,153.18V98.867a15,15,0,0,0-15-15H56.53a15,15,0,0,0-15,15V153.18Z" fill="#6583fe"/><path d="M455.471,433.133H56.529a20.023,20.023,0,0,1-20-20V98.867a20.023,20.023,0,0,1,20-20H455.47a20.023,20.023,0,0,1,20,20V413.133a20.021,20.021,0,0,1-20,20ZM56.529,88.867a10.011,10.011,0,0,0-10,10V413.133a10.011,10.011,0,0,0,10,10H455.47a10.011,10.011,0,0,0,10-10V98.867a10.011,10.011,0,0,0-10-10Z" fill="#2626bc"/><circle cx="10.901" cy="10.901" r="10.901" transform="translate(74.722 109.867)" fill="#fff"/><circle cx="10.901" cy="10.901" r="10.901" transform="translate(109.523 109.867)" fill="#fff"/><circle cx="10.901" cy="10.901" r="10.901" transform="translate(144.323 109.867)" fill="#fff"/><path d="M432.278,133.015H296.119v-24.5H432.278a5,5,0,0,1,5,5v14.5a5,5,0,0,1-5,5Z" fill="#fff"/><path d="M296.789,108.831a13.557,13.557,0,1,0-4.22,22.025l4.348,4.348a5,5,0,1,0,7.071-7.071l-4.348-4.348a13.57,13.57,0,0,0-2.851-14.954Zm-12.1,7.071a3.557,3.557,0,1,1,0,5.031A3.562,3.562,0,0,1,284.687,115.9Z" fill="#2626bc"/><path d="M208.216,245.551H175.9a5,5,0,0,1-5-5V208.238a5,5,0,0,1,5-5h32.313a5,5,0,0,1,5,5v32.313A5,5,0,0,1,208.216,245.551Z" fill="#6583fe"/><path d="M311.9,213.238H228.723a5,5,0,0,0,0,10H311.9a5,5,0,0,0,0-10Z" fill="#2626bc"/><path d="M311.9,233.726H228.723a5,5,0,1,0,0,10H311.9a5,5,0,0,0,0-10Z" fill="#2626bc"/><path d="M311.9,254.213h-136a5,5,0,0,0,0,10h136a5,5,0,0,0,0-10Z" fill="#2626bc"/><path d="M439.218,208.238H395.037a5,5,0,0,0,0,10h44.181a5,5,0,0,0,0-10Z" fill="#2626bc"/><circle cx="14.305" cy="14.305" r="14.305" transform="translate(352.393 198.933)" fill="#6583fe"/><path d="M439.218,254.213H395.037a5,5,0,0,0,0,10h44.181a5,5,0,0,0,0-10Z" fill="#2626bc"/><circle cx="14.305" cy="14.305" r="14.305" transform="translate(352.393 244.908)" fill="#6583fe"/><path d="M439.218,300.189H395.037a5,5,0,0,0,0,10h44.181a5,5,0,0,0,0-10Z" fill="#2626bc"/><circle cx="14.305" cy="14.305" r="14.305" transform="translate(352.393 290.884)" fill="#6583fe"/><path d="M439.218,346.165H395.037a5,5,0,0,0,0,10h44.181a5,5,0,0,0,0-10Z" fill="#2626bc"/><circle cx="14.305" cy="14.305" r="14.305" transform="translate(352.393 336.86)" fill="#6583fe"/><path d="M439.218,392.14H395.037a5,5,0,0,0,0,10h44.181a5,5,0,0,0,0-10Z" fill="#2626bc"/><circle cx="14.305" cy="14.305" r="14.305" transform="translate(346.389 397.137) rotate(-45)" fill="#6583fe"/><path d="M309.712,300.733a5,5,0,1,1-5-5A5,5,0,0,1,309.712,300.733Z" fill="#2626bc"/><path d="M117.885,222.994H70.2a5,5,0,0,1,0-10h47.681a5,5,0,0,1,0,10Z" fill="#2626bc"/><path d="M117.885,242.092H70.2a5,5,0,0,1,0-10h47.681a5,5,0,0,1,0,10Z" fill="#2626bc"/><path d="M117.885,276.641H70.2a5,5,0,0,1,0-10h47.681a5,5,0,0,1,0,10Z" fill="#2626bc"/><path d="M117.885,295.738H70.2a5,5,0,0,1,0-10h47.681a5,5,0,0,1,0,10Z" fill="#2626bc"/><path d="M117.885,330.287H70.2a5,5,0,0,1,0-10h47.681a5,5,0,0,1,0,10Z" fill="#2626bc"/><path d="M117.885,349.385H70.2a5,5,0,0,1,0-10h47.681a5,5,0,0,1,0,10Z" fill="#2626bc"/><path d="M117.885,383.934H70.2a5,5,0,0,1,0-10h47.681a5,5,0,0,1,0,10Z" fill="#2626bc"/><path d="M117.885,403.031H70.2a5,5,0,0,1,0-10h47.681a5,5,0,0,1,0,10Z" fill="#2626bc"/><path d="M342.138,68.52a14.292,14.292,0,1,1,14.291-14.291A14.307,14.307,0,0,1,342.138,68.52Zm0-18.583a4.292,4.292,0,1,0,4.291,4.292A4.3,4.3,0,0,0,342.138,49.937Z" fill="#6583fe"/><path d="M290.759,49.937A14.292,14.292,0,1,1,305.05,35.646a14.307,14.307,0,0,1-14.291,14.291Zm0-18.583a4.292,4.292,0,1,0,4.291,4.292A4.3,4.3,0,0,0,290.759,31.354Z" fill="#6583fe"/><path d="M111.133,482.173a5,5,0,0,1-5-5,6.006,6.006,0,0,0-6-6,5,5,0,0,1,0-10,6.006,6.006,0,0,0,6-6,5,5,0,0,1,10,0,6.006,6.006,0,0,0,6,6,5,5,0,0,1,0,10,6.006,6.006,0,0,0-6,6A5,5,0,0,1,111.133,482.173Z" fill="#6583fe"/><path d="M428.128,482.173a5,5,0,0,1-5-5,6.006,6.006,0,0,0-6-6,5,5,0,0,1,0-10,6.006,6.006,0,0,0,6-6,5,5,0,0,1,10,0,6.006,6.006,0,0,0,6,6,5,5,0,1,1,0,10,6.006,6.006,0,0,0-6,6A5,5,0,0,1,428.128,482.173Z" fill="#6583fe"/><path d="M360.721,482.173a5,5,0,0,1-5-5,6.006,6.006,0,0,0-6-6,5,5,0,0,1,0-10,6.006,6.006,0,0,0,6-6,5,5,0,0,1,10,0,6.006,6.006,0,0,0,6,6,5,5,0,1,1,0,10,6.006,6.006,0,0,0-6,6A5,5,0,0,1,360.721,482.173Z" fill="#6583fe"/><path d="M470.471,158.18H41.529a5,5,0,1,1,0-10H470.47a5,5,0,0,1,0,10Z" fill="#2626bc"/><path d="M335.44,428.133a5,5,0,0,1-5-5V152.974a5,5,0,0,1,10,0V423.133A5,5,0,0,1,335.44,428.133Z" fill="#2626bc"/></g></svg>