<svg xmlns="http://www.w3.org/2000/svg" width="512" height="448.722" viewBox="0 0 512 448.722"><g transform="translate(0 -31.639)"><path d="M512,256a10,10,0,0,0-5.19-8.767L450.476,216.32,506.81,185.4a10,10,0,0,0,0-17.534l-83.549-45.85a10,10,0,0,0-9.621,17.534l67.573,37.084L256,300.232,30.786,176.639,256,53.046l78.738,43.21a10,10,0,0,0,9.621-17.534L260.81,32.872a10,10,0,0,0-9.621,0l-246,135a10,10,0,0,0,0,17.534l56.334,30.915L5.189,247.234a10,10,0,0,0,0,17.534l56.333,30.915L5.189,326.594a10,10,0,0,0,0,17.534l246,135a10,10,0,0,0,9.621,0l246-135a10,10,0,0,0,0-17.534l-56.332-30.912,56.332-30.914A10,10,0,0,0,512,256Zm-30.786,79.36L256,458.954,30.786,335.361l51.521-28.272,168.881,92.679a10,10,0,0,0,9.622,0l168.881-92.679ZM256,379.594,30.787,256l51.522-28.273,168.88,92.678a10,10,0,0,0,9.621,0l168.88-92.678L481.213,256Z" fill="#6583fb"/><circle cx="10" cy="10" r="10" transform="translate(369 99.139)" fill="#6583fb"/><text transform="matrix(0.866, 0.5, -0.5, 0.866, 196.726, 58.651)" fill="#6583fb" font-size="48" font-family="Poppins-Bold, Poppins" font-weight="700"><tspan x="-84.624" y="50">&lt;html&gt;</tspan></text></g></svg>