<svg xmlns="http://www.w3.org/2000/svg" width="398" height="497" viewBox="0 0 398 497"><g transform="translate(-53 -59)"><g transform="translate(3.5 59)"><path d="M366.347,497H105.581a15,15,0,0,1-15-15V15a15,15,0,0,1,15-15H366.347a15,15,0,0,1,15,15V482A15,15,0,0,1,366.347,497Z" fill="#b9b9be"/><path d="M90.581,238.16H381.347V293.1H90.581Z" fill="#ebe1dc"/><path d="M49.5,73.482V245.936a20,20,0,0,0,20,20h358a20,20,0,0,0,20-20V73.482a20,20,0,0,0-20-20H69.5a20,20,0,0,0-20,20Z" fill="#6583fb"/><path d="M407.609,53.482H428.02A19.479,19.479,0,0,1,447.5,72.961V246.456a19.479,19.479,0,0,1-19.479,19.479H407.609Z" fill="#b9b9be"/><path d="M333.4,457.494H138.53a10,10,0,0,1-10-10V408.9a10,10,0,0,1,10-10H333.4a10,10,0,0,1,10,10v38.6A10,10,0,0,1,333.4,457.494Z" fill="#6583fb"/><path d="M333.4,229.461H138.53a10,10,0,0,1-10-10v-38.6a10,10,0,0,1,10-10H333.4a10,10,0,0,1,10,10v38.6A10,10,0,0,1,333.4,229.461Z" fill="#e1e6fd"/><path d="M333.4,398.9h-30a10,10,0,0,1,10,10v38.6a10,10,0,0,1-10,10h30a10,10,0,0,0,10-10V408.9A10,10,0,0,0,333.4,398.9Z" fill="#fff"/><path d="M333.4,170.865h-30a10,10,0,0,1,10,10v38.6a10,10,0,0,1-10,10h30a10,10,0,0,0,10-10v-38.6a10,10,0,0,0-10-10Z" fill="#fff"/><circle cx="7.5" cy="7.5" r="7.5" transform="translate(128.53 79.126)" fill="#b9b9be"/><circle cx="7.5" cy="7.5" r="7.5" transform="translate(128.53 118.745)" fill="#b9b9be"/><circle cx="7.5" cy="7.5" r="7.5" transform="translate(128.53 306.032)" fill="#ebe1dc"/><circle cx="7.5" cy="7.5" r="7.5" transform="translate(128.53 345.652)" fill="#ebe1dc"/><path d="M81.633,185.2a7.5,7.5,0,0,1-7.5-7.5V141.718a7.5,7.5,0,0,1,15,0V177.7A7.5,7.5,0,0,1,81.633,185.2Z" fill="#b9b9be"/><path d="M339.427,94.126H172.953a7.5,7.5,0,0,1,0-15H339.428a7.5,7.5,0,1,1,0,15Z" fill="#fcf5f5"/><path d="M339.427,133.746H172.953a7.5,7.5,0,0,1,0-15H339.428a7.5,7.5,0,1,1,0,15Z" fill="#fcf5f5"/><path d="M339.427,321.032H172.953a7.5,7.5,0,0,1,0-15H339.428a7.5,7.5,0,1,1,0,15Z" fill="#fff"/><path d="M339.427,360.652H172.953a7.5,7.5,0,0,1,0-15H339.428a7.5,7.5,0,1,1,0,15Z" fill="#fff"/></g><path d="M22.423,50.511a1.251,1.251,0,0,0,.924-.372,1.282,1.282,0,0,0,.372-.948,1.1,1.1,0,0,0-.18-.612,1.132,1.132,0,0,0-.516-.42l-7.848-3.144,7.848-3.144a1.062,1.062,0,0,0,.7-1.032,1.268,1.268,0,0,0-.36-.936,1.236,1.236,0,0,0-.912-.36,1.852,1.852,0,0,0-.7.145l-8.472,3.456a1.965,1.965,0,0,0-.936.743,1.991,1.991,0,0,0-.336,1.128,1.97,1.97,0,0,0,.336,1.14,2.15,2.15,0,0,0,.936.756l8.472,3.456a1.817,1.817,0,0,0,.672.144Z" transform="translate(96.337 42.611)" fill="#3a2c60"/><path d="M26.263,53.7a1.448,1.448,0,0,0,.828-.252,1.306,1.306,0,0,0,.515-.756l5.521-17.279a1.926,1.926,0,0,0,.071-.5,1.2,1.2,0,0,0-.431-.948,1.5,1.5,0,0,0-1.008-.372A1.394,1.394,0,0,0,30.414,34.6l-5.5,17.28a1.875,1.875,0,0,0-.072.5,1.2,1.2,0,0,0,.431.949,1.472,1.472,0,0,0,.99.371Z" transform="translate(96.337 42.611)" fill="#3a2c60"/><path d="M34.531,48.579a1.1,1.1,0,0,0-.18.612,1.282,1.282,0,0,0,.372.948,1.248,1.248,0,0,0,.923.372,1.813,1.813,0,0,0,.672-.144l8.473-3.456a2.156,2.156,0,0,0,.936-.756,1.969,1.969,0,0,0,.335-1.14,1.99,1.99,0,0,0-.335-1.128,1.97,1.97,0,0,0-.936-.743l-8.473-3.456a1.843,1.843,0,0,0-.7-.145,1.236,1.236,0,0,0-.912.36,1.268,1.268,0,0,0-.36.936,1.062,1.062,0,0,0,.7,1.032L42.9,45.015l-7.848,3.144a1.122,1.122,0,0,0-.521.42Z" transform="translate(96.337 42.611)" fill="#3a2c60"/></g></svg>